<svg id="Layer_1" enable-background="new 0 0 512 512" height="512" viewBox="0 0 512 512" width="512" xmlns="http://www.w3.org/2000/svg"><g><path d="m500.602 253.106c-7.204-128.846-113.954-231.11-244.602-231.11-135.311 0-245.002 109.691-245.002 245.002 0 28.042 4.724 54.978 13.398 80.071z" fill="#7e6dd1"/><path d="m279.168 268.134c-1.768-2.721-3.295-6.087-4.552-10.011h-3.076c-2.587 2.432-5.174 4.639-7.705 6.604-10.352 8.039-23.125 12.405-36.281 12.405-.538 0-1.074-.019-1.611-.033l.107.292c-.082 3.73-2.026 47.85-46.242 68.397-.138.01-.318.025-.529.047 1.092 1.768 2.225 3.497 3.397 5.177 13.21 8.868 28.832 13.653 44.878 13.653 16.167 0 31.902-4.859 45.175-13.856 1.329-1.892 2.61-3.845 3.837-5.849v-63.772c0-4.484 1.097-8.71 3.026-12.435-.235-.356-.387-.568-.424-.619z" fill="#ffaa7b"/><path d="m183.569 258.124h-2.657c.07.068.136.141.206.209-1.272 4.05-2.83 7.509-4.635 10.293-.62.861-8.829 12.608-9.933 31.198-1.064 17.922 5.023 33.972 13.636 47.442 47.673-21.982 47.367-70.133 47.367-70.133-13.156 0-25.93-4.366-36.281-12.405-2.529-1.965-5.115-4.172-7.703-6.604z" fill="#fc9460"/><path d="m180.18 347.269c6.513 10.186 14.473 18.896 21.896 25.804 1.71 1.591 2.69 3.845 2.69 6.183v127.361c14.911 3.173 30.321 4.993 46.1 5.317v-132.38c.085-.412-.473-4.059 2.689-7.003 7.359-6.85 15.245-15.47 21.727-25.544-13.785 10.149-30.511 15.658-47.728 15.658-17.068 0-33.657-5.412-47.374-15.396z" fill="#55405e"/><path d="m202.076 373.073c1.71 1.591 2.69 3.845 2.69 6.183v5.609c7.348 2.165 15.017 3.299 22.789 3.299 7.957 0 15.805-1.191 23.311-3.459v-5.152c.085-.412-.473-4.059 2.689-7.004 7.359-6.849 15.245-15.47 21.727-25.544-13.785 10.149-30.511 15.658-47.728 15.658-17.069 0-33.658-5.412-47.375-15.396 6.514 10.189 14.474 18.898 21.897 25.806z" fill="#876d93"/><g><path d="m263.957 492.906c.076-.001.152-.001.228-.001h32.232c-11.445-3.164-19.851-13.646-19.851-26.098v-91.367c-8.117 1.899-17.145 3.229-27.201 3.817v132.652c1.137.03 2.281.032 3.421.047-4.338-8.144 1.117-18.967 11.171-19.05z" fill="#ff4155"/></g><path d="m160.002 373.14c-1.651 1.294-3.449.866-3.507.852l-.354-.051c-.862-.022-21.477-.41-35.127 12.885-7.641 7.441-11.515 17.678-11.515 30.425v46.129c28.185 21.062 61.054 36.201 96.767 43.565v-127.689c-17.74-1.036-32.296-4.373-44.248-9.099-.507 1.31-1.176 2.325-2.016 2.983z" fill="#ff4155"/><path d="m107.511 304.066c-16.291 16.291-63.945 18.546-83.122 42.982 16.394 47.439 46.951 88.267 86.611 117.438 0-13.961 0-30.5 0-47.236 0-43 45.103-41.81 45.103-41.81s4.972 1.338 7.324-4.743c-52.576-19.97-55.916-66.631-55.916-66.631z" fill="#e80054"/><g fill="#d3dcfb"><path d="m278.828 270.353c4.18-9.562 13.718-16.247 24.821-16.247h7.594c-8.075-4.6-16.328-9.004-23.707-13.373 0 0-.286.163-.887.49-4.355 6.169-9.079 11.558-13.834 16.164 1.087 3.645 2.722 7.912 5.096 11.566 0-.001.352.485.917 1.4z"/><path d="m261.92 388.362c4.146-1.125 9.133-2.588 14.647-4.416v-41.793c-5.408 9.328-13.151 19.171-24.033 29.299-2.019 1.88-3.169 4.522-3.169 7.281 0 6.558 6.226 11.346 12.555 9.629z"/><path d="m180.684 345.368c-.292.14-.579.283-.875.42-2.405.169-16.674 1.814-16.674 16.877 0 5.249-1.083 8.871-3.133 10.475-1.651 1.294-3.449.866-3.507.852l-.354-.051c-.204-.005-1.528-.029-3.597.112 15.79 7.294 30.99 12.072 41.167 14.833 6.329 1.717 12.555-3.071 12.555-9.628 0-2.759-1.149-5.401-3.169-7.281-9.84-9.161-17.11-18.086-22.413-26.609z"/></g><path d="m177.721 269.475c2.378-3.66 4.014-7.935 5.101-11.583-4.835-4.622-9.653-10.048-14.095-16.285-.42-.23-.631-.35-.631-.35-18.389 10.887-42.205 21.991-55.172 35.802-20.754 22.104-18.468 57.45 5.247 76.34 11.489 9.151 24.743 16.406 37.426 22.038.329-.002.505.003.505.003s8.532 2.31 8.532-12.775 15.545-15.395 15.545-15.395c.441-.203.87-.414 1.303-.621-28.113-43.755-3.761-77.174-3.761-77.174z" fill="#bec8f7"/><path d="m31.566 339.834c-2.678 2.178-5.086 4.58-7.17 7.234 10.515 30.418 26.851 58.115 47.679 81.767 0-9.155 0-17.435 0-24.262.001-27.999-22.477-50.883-40.509-64.739z" fill="#ff4155"/><path d="m164.635 449.811c-4.692 0-8.532-3.839-8.532-8.532v-70.083c0-4.693 3.839-8.532 8.532-8.532 4.693 0 8.532 3.839 8.532 8.532v70.083c-.001 4.693-3.84 8.532-8.532 8.532z" fill="#deeeff"/><path d="m353.288 491.905h-93.102c-.076 0-.152 0-.228.001-10.451.086-15.939 11.778-10.616 20.001 2.213.059 4.432.093 6.659.093 34.571 0 67.462-7.175 97.287-20.095z" fill="#45304c"/><path d="m304.972 253.106h-5.324c-14.957 0-27.081 12.125-27.081 27.081v185.62c0 14.957 12.125 27.082 27.081 27.082h51.367c4.554-1.918 9.032-3.981 13.441-6.162z" fill="#6e5779"/><path d="m481.862 253.106h-81.184c-6.436 3.164-10.901 9.774-10.901 17.395v201.739c51.541-33.663 89.634-86.19 104.437-147.804z" fill="#45304c"/><path d="m391.777 271.502c0-8.541 5.601-15.825 13.306-18.395h-37.692l-19.622 113.313 22.225 117.481c7.501-3.95 14.767-8.284 21.783-12.964z" fill="#34243a"/><path d="m338.764 334.381s2.236 10.937 14.486 5.403c.21-.095.44-.146.683-.17l14.981-86.508h-12.614l-20.863 81.936z" fill="#ff4155"/><path d="m354.25 337.784c-12.25 5.534-14.486-5.403-14.486-5.403l-3.843.765-6.355 24.96 32.99 129.567c2.978-1.44 5.917-2.948 8.826-4.504l-22.089-116.76z" fill="#e80054"/><path d="m492.953 253.106h-12.613l12.984 74.979c3.758-14.643 6.179-29.82 7.164-45.387z" fill="#ff7186"/><path d="m499.577 293.451c.933-8.691 1.425-17.514 1.425-26.453 0-4.663-.143-9.293-.4-13.892h-11.298z" fill="#55405e"/><path d="m359.949 253.106h-57.118l28.559 112.164z" fill="#45304c"/><path d="m108.308 252.579c25.343-40.417-41.633-66.076-37.787-145.654-37.088 42.936-59.522 98.884-59.522 160.073 0 5.798.214 11.546.612 17.242 29.381 1.182 77.971-1.797 96.697-31.661z" fill="#9589e8"/><path d="m380.198 55.779c-.719 10.217-3.955 22.188-11.571 35.733-27.127 48.246-45.199 140.543 33.584 140.543 38.904 0 69.515-14.004 90.551-28.182-16.721-62.884-57.815-115.828-112.564-148.094z" fill="#9589e8"/><g><path d="m223.8.013c-.397.296-32.934 24.688-1.885 59.7.547.617 1.063 1.253 1.562 1.9 5.062.455 10.196-.123 15.071-1.744 11.725-3.899 30.11-7.804 45.098-1.06 17.641 7.938 16.164 32.221 15.19 45.659-.339 4.672.772 9.358 3.297 13.32 1.491 2.339 2.674 4.819 3.613 7.268 1.167 3.044 1.997 8.19 2.51 11.384 2.708-1.312 8.578-2.741 11.889-2.273.405-14.048 1.702-31.192 1.702-31.192 14.301-70.044-44.475-103.74-98.047-102.962z" fill="#55405e"/><path d="m209.266 1.087c-52.68 7.178-57.687 37.046-57.71 48.004-.005 2.298-1.278 4.428-3.344 5.433-27.403 13.33-12.628 79.577-12.628 79.577 2.752.184 7.632 1.298 9.78 2.339.526-3.274 1.385-8.497 2.598-11.612.924-2.374 2.079-4.772 3.524-7.038 2.506-3.931 3.647-8.569 3.307-13.206-.985-13.403-2.51-37.813 15.182-45.774 14.988-6.744 33.374-2.839 45.098 1.06 3.736 1.242 7.625 1.871 11.516 1.895-.533-.699-1.084-1.387-1.672-2.05-31.239-35.227 1.894-59.707 1.894-59.707-5.93-.058-11.813.298-17.545 1.079z" fill="#34243a"/><path d="m326.066 133.991c-4.103-3.76-13.276-1.854-16.81.448.774 4.821.818 9.753.149 14.623l-4.17 30.372c0 2.448-.077 4.85-.219 7.211 10.169 3.067 16.22-6.062 17.071-12.327.366-2.697.965-5.355 1.796-7.949 2.705-8.447 12.463-22.957 2.183-32.378z" fill="#ffaa7b"/><path d="m127.553 133.991c4.103-3.76 13.276-1.854 16.81.448-.774 4.821-.818 9.753-.149 14.623l4.17 30.372c0 2.448.077 4.85.219 7.211-10.169 3.067-16.22-6.062-17.071-12.327-.366-2.697-.965-5.355-1.796-7.949-2.705-8.447-12.463-22.957-2.183-32.378z" fill="#fc9460"/><path d="m307.746 125.056c-.939-2.449-2.122-4.929-3.613-7.268-2.525-3.962-3.636-8.648-3.297-13.32.973-13.439.451-39.721-17.19-47.659-14.987-6.744-33.372-2.839-45.096 1.059-5.438 1.808-11.2 2.318-16.824 1.543-10.873 11.213-11.092 32.169-10.244 43.711.349 4.745-.819 9.492-3.384 13.516-1.478 2.319-2.66 4.773-3.606 7.203-3.068 7.881-3.962 16.428-2.813 24.797l4.269 31.091c0 44.698 23.86 75.079 44.156 90.84 1.439 1.117 2.928 2.157 4.454 3.132 2.983-1.581 5.842-3.417 8.533-5.507 19.831-15.4 43.145-45.085 43.145-88.759l4.17-30.372c1.111-8.097.268-16.367-2.66-24.007z" fill="#ffc7ab"/><g><path d="m250.254 268.193c-19.831-15.4-43.145-45.085-43.145-88.759l-4.171-30.379c-1.123-8.177-.249-16.529 2.749-24.229.924-2.374 2.079-4.772 3.524-7.038 2.506-3.931 3.647-8.569 3.307-13.206-.887-12.068-.583-34.673 12.398-44.87-3.331-.169-6.645-.78-9.846-1.845-11.725-3.899-30.109-7.803-45.096-1.059-17.692 7.96-18.166 34.371-17.182 47.774.341 4.637-.801 9.274-3.307 13.206-1.444 2.266-2.6 4.664-3.524 7.038-2.997 7.701-3.871 16.052-2.748 24.229l4.171 30.379c0 43.674 23.314 73.359 43.145 88.759 10.351 8.038 23.125 12.404 36.281 12.404 10.552 0 20.855-2.815 29.863-8.074-2.223-1.298-4.37-2.739-6.419-4.33z" fill="#ffaa7b"/></g><path d="m282.954 214.433c-2.319-13.828-12.296-27.674-25.616-30.695l-20.359-5.981c-3.539-1.04-7.083.776-8.508 3.859-.26.563-1.047.563-1.307 0-1.425-3.083-4.969-4.898-8.508-3.859l-15.599 4.583c-3.532 3.986-12.203 16.293 5.013 25.934.184.103.356.21.537.315 1.326-.423 2.676-.788 4.05-1.091l3.637-.803c5.3-1.17 9.399-6.344 10.902-11.857.172-.633 1.072-.633 1.245 0 1.503 5.513 5.601 10.687 10.902 11.857l3.637.803c10.452 2.307 19.61 8.156 26.088 16.33-1.34 5.962-5.546 15.022-18.578 19.627-8.744 3.089-18.286-2.41-19.406-11.512-.014-.118-.028-.236-.041-.356-.184-1.698-1.605-3.002-3.335-3.002-.019 0-.036.005-.054.005 2.608 5.527 3.001 9.601 3.001 9.601s-16.31 24.572 14.817 39.186c.506.238.979.486 1.428.742.525-.244 1.054-.478 1.572-.742 20.374-10.373 47.462-28.396 56.126-74.757.712-3.812 1.074-7.689 1.074-11.567-3.298 8.137-10.154 17.93-22.718 23.38z" fill="#55405e"/><path d="m233.58 238.305c-1.304-1.811-2.201-3.956-2.497-6.363-.014-.118-.028-.236-.041-.356-.184-1.698-1.605-3.002-3.335-3.002-1.73 0-3.151 1.305-3.335 3.002-.013.12-.027.238-.041.356-1.12 9.102-10.662 14.602-19.406 11.512-12.031-4.251-17.206-12.302-19.431-18.205 6.113-8.361 14.933-14.507 25.118-17.251-19.229-11.137-4.673-25.659-3.389-26.882l-8.925 2.622c-13.583 3.08-23.696 17.417-25.751 31.513-13.897-5.241-21.131-15.636-24.6-24.2v.004c0 3.873.361 7.744 1.072 11.551 8.649 46.353 35.605 64.373 55.982 74.758 13.643 6.953 29.825 6.958 43.471.011-29.91-14.041-16.024-37.274-14.892-39.07z" fill="#34243a"/></g></g></svg>